<?xml version="1.0" standalone="no"?>
<!DOCTYPE svg PUBLIC "-//W3C//DTD SVG 20010904//EN"
 "http://www.w3.org/TR/2001/REC-SVG-20010904/DTD/svg10.dtd">
<svg version="1.0" xmlns="http://www.w3.org/2000/svg"
 width="512.000000pt" height="512.000000pt" viewBox="0 0 512.000000 512.000000"
 preserveAspectRatio="xMidYMid meet">
<metadata>
Created by potrace 1.11, written by Peter Selinger 2001-2013
</metadata>
<g transform="translate(0.000000,512.000000) scale(0.100000,-0.100000)"
fill="#000000" stroke="none">
<path d="M1885 5074 c-26 -13 -53 -30 -60 -37 -7 -6 -31 -27 -53 -45 -22 -18
-73 -64 -112 -102 -40 -39 -76 -70 -81 -70 -5 0 -9 -7 -9 -15 0 -8 -7 -15 -15
-15 -8 0 -15 -7 -15 -15 0 -7 -6 -18 -13 -22 -7 -4 -37 -37 -67 -73 -30 -35
-63 -73 -73 -85 -29 -32 -214 -280 -254 -342 -7 -10 -28 -42 -48 -70 -19 -29
-35 -57 -35 -63 0 -5 -4 -10 -8 -10 -5 0 -15 -12 -23 -27 -8 -16 -16 -30 -19
-33 -8 -8 -44 -64 -45 -70 0 -3 -8 -16 -17 -30 -9 -14 -22 -37 -29 -52 -7 -16
-16 -28 -21 -28 -4 0 -8 -4 -8 -9 0 -4 -22 -46 -48 -92 -27 -46 -55 -99 -63
-116 -7 -18 -16 -33 -19 -33 -3 0 -14 -20 -24 -45 -11 -25 -22 -45 -27 -45 -4
0 -10 -13 -14 -30 -4 -16 -11 -30 -16 -30 -5 0 -8 -3 -7 -7 1 -5 -12 -37 -29
-73 -16 -36 -33 -75 -37 -88 -4 -12 -11 -22 -15 -22 -4 0 -8 -8 -9 -17 -3 -30
-7 -48 -13 -58 -5 -8 -30 -76 -34 -95 -1 -3 -4 -12 -8 -20 -7 -18 -30 -91 -33
-105 -1 -5 -14 -43 -28 -82 -13 -40 -23 -73 -21 -73 2 0 -5 -26 -16 -57 -20
-59 -47 -158 -56 -202 -2 -14 -7 -29 -10 -34 -3 -6 -8 -20 -9 -31 -4 -19 -70
-305 -75 -318 -2 -6 -10 -54 -13 -83 -6 -43 -14 -73 -22 -87 -5 -7 -3 -8 5 -3
10 6 11 3 2 -14 -7 -12 -9 -26 -6 -31 3 -5 1 -11 -4 -14 -5 -4 -8 -17 -6 -31
1 -14 -1 -25 -4 -25 -6 0 -7 -12 -13 -122 -2 -32 -5 -58 -8 -58 -3 0 -6 -33
-7 -73 -2 -104 -12 -237 -18 -247 -3 -4 1 -10 7 -13 9 -2 10 -8 3 -18 -5 -8
-10 -38 -10 -66 0 -29 -4 -53 -8 -53 -5 0 -5 -4 -2 -10 3 -5 2 -18 -3 -27 -5
-10 -6 -27 -2 -38 4 -11 4 -25 -1 -30 -4 -6 -10 -35 -13 -65 -3 -30 -8 -65
-10 -77 -3 -12 -7 -71 -11 -130 -3 -59 -8 -109 -10 -112 -2 -2 0 -11 5 -21 6
-11 6 -30 0 -49 -5 -19 -5 -33 1 -37 6 -3 9 -13 8 -22 -2 -10 1 -33 6 -52 5
-19 9 -37 10 -40 12 -75 117 -136 292 -170 55 -11 74 -13 183 -25 57 -6 164
-13 260 -15 41 -2 80 -6 85 -10 6 -4 28 -13 50 -20 22 -7 45 -16 50 -20 13 -9
108 -35 118 -32 4 1 7 -2 7 -6 0 -5 6 -9 13 -10 44 -5 77 -16 77 -24 0 -5 5
-6 10 -3 6 4 18 1 27 -7 14 -11 16 -11 8 2 -7 12 -6 13 6 3 8 -6 26 -14 39
-17 14 -3 40 -9 59 -15 19 -6 37 -8 42 -6 4 3 10 1 13 -4 3 -5 27 -12 53 -16
27 -5 53 -9 58 -11 6 -1 21 -4 35 -7 14 -3 32 -8 40 -11 8 -2 34 -7 57 -10 22
-3 52 -8 65 -11 12 -3 39 -7 58 -10 19 -2 51 -7 70 -10 19 -3 53 -7 75 -9 22
-3 63 -7 90 -11 204 -24 318 -30 610 -29 252 0 430 6 508 19 12 2 49 6 82 10
59 5 79 9 140 21 17 3 37 6 45 6 8 0 31 4 50 9 19 4 48 10 64 13 16 3 55 11
85 17 31 6 61 12 68 13 7 1 15 5 19 8 3 4 12 4 20 1 8 -3 14 1 14 8 0 7 3 10
6 7 3 -3 38 3 77 14 39 11 76 21 82 22 5 1 19 7 30 13 11 5 32 13 48 17 15 4
53 18 84 32 31 15 62 28 67 29 38 10 56 18 56 26 0 5 3 8 8 7 9 -3 106 45 110
55 2 4 8 7 14 7 14 0 204 128 237 159 14 14 50 48 79 74 28 26 52 52 52 57 0
6 4 10 8 10 4 0 19 18 32 39 14 21 28 37 31 35 4 -2 12 10 19 27 7 17 18 36
24 42 24 25 92 180 101 227 1 8 7 28 14 44 6 16 11 36 9 45 -1 9 1 22 5 28 4
7 10 50 14 95 6 98 6 93 -2 188 -3 41 -6 83 -6 93 0 10 -7 50 -15 90 -20 98
-19 96 -26 103 -4 3 -4 12 -1 20 3 8 1 14 -4 14 -5 0 -9 9 -10 19 -4 48 -129
288 -173 331 -3 3 -24 27 -47 53 -23 26 -58 61 -78 77 -21 17 -35 30 -31 30 4
0 -13 16 -38 35 -26 19 -49 35 -52 35 -2 0 -13 8 -24 17 -10 10 -36 27 -57 38
-21 10 -45 24 -53 31 -22 17 -195 90 -271 113 -74 23 -216 57 -275 66 -100 14
-120 17 -144 19 -14 1 -29 4 -35 6 -26 13 -440 1 -560 -16 -170 -23 -390 -77
-530 -130 -38 -14 -83 -31 -100 -37 -16 -5 -33 -14 -36 -19 -3 -6 -8 -9 -10
-9 -10 4 -69 -22 -69 -30 0 -4 -7 -6 -15 -3 -8 4 -15 1 -15 -6 0 -6 -4 -8 -10
-5 -5 3 -10 2 -10 -3 0 -6 -11 -13 -25 -16 -14 -4 -25 -11 -25 -16 0 -6 -6
-10 -13 -10 -15 0 -160 -97 -165 -111 -2 -5 -8 -9 -14 -9 -16 0 -175 -166
-193 -201 -9 -16 -20 -29 -25 -29 -6 0 -10 -8 -10 -17 0 -33 -19 2 -23 42 -2
22 -7 47 -10 55 -3 8 -11 35 -18 60 -7 25 -14 50 -15 55 -2 6 -11 39 -21 75
-10 36 -21 70 -24 75 -6 9 -15 42 -24 85 -2 8 -8 35 -14 60 -23 104 -33 295
-19 385 4 28 10 66 12 85 22 163 68 307 118 366 45 54 93 95 135 115 23 11 44
19 45 18 2 -1 12 3 23 9 63 33 256 34 390 2 28 -6 57 -13 65 -15 8 -2 44 -13
80 -25 126 -41 214 -60 290 -65 51 -3 57 -1 84 28 41 46 79 134 79 188 0 35
-6 55 -28 85 -36 50 -115 124 -132 124 -10 0 -11 5 -5 18 5 9 8 33 8 52 -1 28
3 38 26 50 60 33 132 114 184 207 44 78 51 106 41 164 -3 18 -76 118 -117 160
-14 15 -40 43 -58 63 -19 20 -38 36 -43 36 -5 0 -9 7 -9 15 0 8 -3 15 -7 15
-5 0 -33 24 -64 53 -30 28 -93 83 -140 120 -146 118 -189 150 -189 140 0 -4
-7 3 -16 15 -8 12 -22 22 -30 22 -8 0 -14 5 -14 10 0 6 -5 10 -11 10 -6 0 -31
14 -56 32 -26 17 -52 31 -60 31 -7 0 -13 4 -13 8 0 7 -41 24 -48 20 -2 -1 -9
4 -15 12 -19 24 -128 59 -194 63 -51 2 -70 -1 -108 -22z"/>
</g>
</svg>
